<svg width="580" height="400" xmlns="http://www.w3.org/2000/svg">
 <!-- Created with Method Draw - http://github.com/duopixel/Method-Draw/ -->
 <g>
  <title>background</title>
  <rect fill="#fff" id="canvas_background" height="402" width="582" y="-1" x="-1"/>
  <g display="none" overflow="visible" y="0" x="0" height="100%" width="100%" id="canvasGrid">
   <rect fill="url(#gridpattern)" stroke-width="0" y="0" x="0" height="100%" width="100%"/>
  </g>
 </g>
 <g>
  <title>Layer 1</title>
  <ellipse ry="40.5" rx="42" id="svg_1" cy="121.949997" cx="281" stroke-width="1.5" stroke="#000" fill="#fff"/>
  <path d="m290,76.449997c7,-4 13.309998,-8.337494 16,-10c2.406006,-1.486992 4.186005,-2.692547 6,-4c1.147278,-0.826904 2.852722,-1.173096 4,-2c1.813995,-1.307453 4.907776,-1.496227 9,-2c2.977509,-0.36655 5.007507,-1.122185 6,-1c4.092224,0.503773 7.186005,0.692547 9,2c2.294525,1.653809 5.31076,3.534924 7,5c2.388947,2.07193 3.585785,2.585785 5,4c0.707092,0.707108 1.770233,1.026749 2,2c0.513733,2.176254 1.458801,2.693436 2,4c1.148041,2.771637 0,4 0,6c0,1 0,2 0,3c0,2 0,3 -1,4c-2,2 -3.186005,2.692551 -5,4c-1.147278,0.826904 -2.386871,2.91761 -5,4c-0.923889,0.382683 -2.076111,0.617317 -3,1c-1.306549,0.541199 -3,2 -4,2c-1,0 -1.823761,0.486259 -4,1c-0.973236,0.229752 -1.693451,0.458801 -3,1c-1.847748,0.765366 -2,1 -3,1c-1,0 -1,1 -2,1c-1,0 -2,1 -3,1c-1,0 -2,1 -1,1c1,0 2,0 3,0c2,0 3,0 5,0c1,0 3,0 4,0c1,0 2,0 3,0c2,0 3,0 4,0c2,0 3,0 4,0c2,0 2.823761,0.486259 5,1c1.946503,0.459503 3.61731,1.076118 4,2c0.541199,1.306564 2.026764,1.770248 3,2c2.176239,0.513741 2,2 3,3c1,1 2.61731,2.076118 3,3c0.541199,1.306564 2.458801,1.693436 3,3c0.765381,1.847755 2,3 2,4c0,1 1,3 1,4c0,2 0,3 0,5c0,1 0,3 0,4c0,3 -0.692535,4.186005 -2,6c-0.826904,1.147263 -1.693451,3.458801 -3,4c-2.771637,1.148056 -3,1 -5,1c-4,0 -7.823761,1.486252 -10,2c-0.973236,0.229752 -5.693451,0.458801 -7,1c-2.771637,1.148056 -4,0 -6,0c-1,0 -2,0 -3,0c-2,0 -3,0 -5,0c-1,0 -1.693451,0.458801 -3,1c-0.923889,0.38269 -2,0 -3,0c-1,0 -2,0 -3,0c-1,0 -2,0 -3,0c-1,0 -3,0 -2,0c1,0 3.026764,0.770248 4,1c2.176239,0.513748 2.705475,1.346191 5,3c1.813995,1.307449 3.852722,3.173096 5,4c1.813995,1.307449 4.917603,4.386871 6,7c0.38269,0.923874 1,1 1,3c0,1 2,2 2,3c0,1 0.486267,1.823746 1,4c0.229767,0.973251 0,2 0,3c0,1 0,3 0,4c0,2 -0.61731,3.076126 -1,4c-0.541199,1.306564 -2.292908,3.292892 -3,4c-0.707092,0.707108 -1.769348,1.303223 -3,2c-3.587921,2.031448 -5,2 -6,3c-1,1 -3.292908,2.292892 -4,3c-2.121307,2.121323 -4.076111,-0.38269 -5,0c-1.306549,0.541199 -3,1 -5,1c-2,0 -5,0 -7,0c-2,0 -5,0 -8,0c-2,0 -4.076111,-0.61731 -5,-1c-1.306549,-0.541199 -2.611053,-1.92807 -5,-4c-1.68924,-1.465073 -1.692535,-4.186005 -3,-6c-0.826904,-1.147263 -1.824432,-2.097885 -3,-4c-1.051453,-1.701309 -1,-2 -1,-3c0,-1 0.525726,-2.149353 0,-3c-1.175568,-1.902115 -2,-2 -2,-3c0,-2 -1,-3 -1,-5c0,-1 0,-2 0,-3c0,-1 0,-2 0,1c0,2 0.707092,4.292892 0,5c-0.707092,0.707108 -2.103394,2.906326 -3,4c-2.285889,2.78833 -1.821075,4.298691 -5,6c-0.881683,0.471863 -2.372009,0.385101 -6,3c-1.147278,0.826904 -3.796997,2.2565 -5,3c-2.689987,1.662506 -5,1 -9,3c-2,1 -4,1 -7,1c-1,0 -4,0 -6,0c-1,0 -2.053497,0.459503 -4,0c-2.176254,-0.513748 -4.186005,-0.692551 -6,-2c-1.147263,-0.826904 -3.298691,-1.821075 -5,-5c-0.471863,-0.881668 -2.493454,-2.878555 -3,-6c-0.160187,-0.987091 0,-4 0,-5c0,-2 0,-4 0,-5c0,-1 0,-3 0,-4c0,-1 -0.38269,-3.076126 0,-4c0.541199,-1.306564 2,-2 2,-3c0,-1 1.234634,-2.152237 2,-4c0.541199,-1.306564 1.693436,-3.458801 3,-4c0.923874,-0.38269 0.823746,-2.486252 3,-3c0.973251,-0.229752 2,-2 3,-2c1,0 1.292892,-1.292892 2,-2c1.414215,-1.414215 2.080246,-0.310745 5,-1c2.176254,-0.513748 3,-2 -6,-2c-6,0 -10,0 -12,0c-2,0 -6,0 -8,0c-1,0 -2.585785,0.414215 -4,-1c-0.707108,-0.707108 -1.906326,-2.103409 -3,-3c-2.78833,-2.285873 -3.234634,-2.152237 -4,-4c-0.541199,-1.306564 -2.714127,-3.21167 -5,-6c-0.896591,-1.093674 -1.186005,-2.692551 -3,-4c-1.147263,-0.826904 -0.61731,-2.076118 -1,-3c-0.541199,-1.306564 -1,-2 -1,-5c0,-1 0,-3 0,-5c0,-1 0,-2 1,-3c2,-2 2.960175,-3.083984 5,-4c4.912567,-2.206062 7.878555,-5.493462 11,-6c1.974182,-0.320366 3.934143,-0.144295 6,-1c2.92157,-1.210152 8,-2 9,-2c2,0 4,0 6,0c4,0 5,0 7,0c1,0 3,0 4,0c1,0 2,0 3,0c2,0 2.693436,0.458801 4,1c0.923874,0.382683 2.07193,-1.611046 0,-4c-1.465073,-1.689247 -4.95517,-5.549156 -6,-9c-0.579575,-1.914185 -0.770248,-4.026749 -1,-5c-0.513748,-2.176254 -2,-3 -2,-4c0,-1 -1,-3 -1,-4c0,-1 -0.38269,-3.076118 0,-4c0.541199,-1.306564 1.61731,-2.076122 2,-3c0.541199,-1.306564 1.186005,-1.692547 3,-3c1.147263,-0.826904 2,-2 3,-3c1,-1 2,-1 3,-2c1,-1 1.693436,-1.458805 3,-2c0.923874,-0.382683 2,0 3,-1c1,-1 1.693436,-1.458805 3,-2c1.847748,-0.765366 2.693451,-1.458805 4,-2c0.923889,-0.382683 2,0 7,0c2,0 3,0 4,0c1,0 2.693451,0.458805 4,1c0.923889,0.382683 3,1 4,2c1,1 2,1 3,2c1,1 2,1 3,2c1,1 2.292908,1.292892 3,2c0.707092,0.707108 1.458801,1.693436 2,3c0.38269,0.923878 -0.306549,2.458805 1,3c0.923889,0.382683 1,1 1,2c0,1 0,2 0,4c0,2 0,3 0,4c0,1 0,2 0,3c0,1 0,2 0,3l0,1" id="svg_2" stroke-width="1.5" stroke="#000" fill="none"/>
  <line stroke-linecap="undefined" stroke-linejoin="undefined" id="svg_3" y2="343.449997" x2="279" y1="172.449997" x1="276" stroke-width="1.5" stroke="#000" fill="none"/>
 </g>
</svg>